<?xml version="1.0" standalone="no"?>
<!DOCTYPE svg PUBLIC "-//W3C//DTD SVG 20010904//EN"
 "http://www.w3.org/TR/2001/REC-SVG-20010904/DTD/svg10.dtd">
<svg version="1.0" xmlns="http://www.w3.org/2000/svg"
 width="53.87" height="43.61" viewBox="0 0 512.000000 512.000000"
 preserveAspectRatio="xMidYMid meet">

<g transform="translate(0.000000,512.000000) scale(0.100000,-0.100000)"
fill="#000000" stroke="none">
<path d="M672 5019 c-141 -21 -267 -86 -376 -195 -115 -114 -174 -233 -196
-395 -9 -63 -10 -545 -5 -1924 7 -2042 1 -1891 77 -2045 58 -120 178 -240 298
-298 171 -84 -18 -77 2095 -77 1761 0 1884 1 1948 18 244 62 434 250 504 497
17 62 18 154 18 1960 0 1808 -1 1898 -18 1960 -32 112 -93 216 -177 299 -117
117 -237 178 -394 200 -96 14 -3680 13 -3774 0z m2417 -724 c29 -14 41 -33 41
-63 0 -16 -63 -236 -310 -1074 -64 -219 -114 -398 -111 -398 3 0 93 26 199 59 
105 32 192 54 192 49 0 -11 -78 -280 -83 -284 -3 -3 -94 -30 -252 -75 -77 -22
-145 -45 -151 -52 -6 -7 -65 -199 -132 -427 -66 -228 -124 -423 -127 -432 -7
-17 31 -18 713 -18 l721 0 20 -26 c12 -15 21 -35 21 -46 0 -24 -117 -435 -132
-466 -28 -54 19 -52 -1153 -52 -968 0 -1085 2 -1085 15 0 9 37 138 81 288 148
496 270 919 266 923 -2 3 -85 -20 -185 -51 -99 -30 -187 -55 -195 -55 -12 0
-6 28 30 138 25 75 47 138 48 140 3 3 296 93 362 111 l41 11 30 98 c17 53 74
246 127 427 198 678 297 1013 331 1123 50 161 27 152 382 152 229 0 288 -3
311 -15z"/>
</g>
</svg>
